HIERARCHY
ROOT root
{
	OFFSET	0	13.1	24.9
	CHANNELS 6  Xposition Yposition Zposition Xrotation Yrotation Zrotation
	JOINT spine_1
	{
		OFFSET	0	9.99999	0
		CHANNELS 3  Xrotation Yrotation Zrotation
		JOINT spine_2
		{
			OFFSET	0	112	-10
			CHANNELS 3  Xrotation Yrotation Zrotation
			JOINT spine_3
			{
				OFFSET	0	206.5	19.3
				CHANNELS 3  Xrotation Yrotation Zrotation
				JOINT spine_4
				{
					OFFSET	0	110.4	14.6
					CHANNELS 3  Xrotation Yrotation Zrotation
					JOINT neck_1
					{
						OFFSET	0	71.8	-50.3
						CHANNELS 3  Xrotation Yrotation Zrotation
						JOINT neck_2
						{
							OFFSET	0	86.2	-25.8
							CHANNELS 3  Xrotation Yrotation Zrotation
							JOINT head_ee
							{
								OFFSET	0	179.8	-8.7
								CHANNELS 3  Xrotation Yrotation Zrotation
								End Site
								{
									OFFSET	1	0	0
								}
							}
						}
					}
					JOINT left_clavicle
					{
						OFFSET	-43.2	22.4	-70.8
						CHANNELS 3  Xrotation Yrotation Zrotation
						JOINT left_shoulder
						{
							OFFSET	-93.9	-5.79999	48.7
							CHANNELS 3  Xrotation Yrotation Zrotation
							JOINT left_elbow
							{
								OFFSET	-291.4	-30.8	15.2
								CHANNELS 3  Xrotation Yrotation Zrotation
								JOINT left_lowarm_twist
								{
									OFFSET	-110.7	-3.89999	13.6
									CHANNELS 3  Xrotation Yrotation Zrotation
									JOINT left_hand
									{
										OFFSET	-110.7	-3.89999	13.6
										CHANNELS 3  Xrotation Yrotation Zrotation
										JOINT left_ee
										{
											OFFSET	-80.8	-5.10001	12.1
											CHANNELS 3  Xrotation Yrotation Zrotation
											End Site
											{
												OFFSET	1	0	0
											}
										}
									}
								}
							}
						}
					}
					JOINT right_clavicle
					{
						OFFSET	43.2	22.4	-70.8
						CHANNELS 3  Xrotation Yrotation Zrotation
						JOINT right_shoulder
						{
							OFFSET	93.9	-5.79999	48.7
							CHANNELS 3  Xrotation Yrotation Zrotation
							JOINT right_elbow
							{
								OFFSET	291.4	-30.8	15.2
								CHANNELS 3  Xrotation Yrotation Zrotation
								JOINT right_lowarm_twist
								{
									OFFSET	110.7	-3.89999	13.6
									CHANNELS 3  Xrotation Yrotation Zrotation
									JOINT right_hand
									{
										OFFSET	110.7	-3.89999	13.6
										CHANNELS 3  Xrotation Yrotation Zrotation
										JOINT right_ee
										{
											OFFSET	80.8	-5.10001	12.1
											CHANNELS 3  Xrotation Yrotation Zrotation
											End Site
											{
												OFFSET	1	0	0
											}
										}
									}
								}
							}
						}
					}
				}
			}
		}
	}
	JOINT left_hip
	{
		OFFSET	-82.8	-127.5	0.300001
		CHANNELS 3  Xrotation Yrotation Zrotation
		JOINT left_knee
		{
			OFFSET	-28.2	-396.7	2.2
			CHANNELS 3  Xrotation Yrotation Zrotation
			JOINT left_ankle
			{
				OFFSET	-11.7	-411.3	35.4
				CHANNELS 3  Xrotation Yrotation Zrotation
				JOINT left_toes
				{
					OFFSET	0	-60	-88.6
					CHANNELS 3  Xrotation Yrotation Zrotation
					JOINT left_foot_ee
					{
						OFFSET	-22.5	-16.5	-42.2
						CHANNELS 3  Xrotation Yrotation Zrotation
						End Site
						{
							OFFSET	1	0	0
						}
					}
				}
			}
		}
	}
	JOINT right_hip
	{
		OFFSET	82.8	-127.5	0.300001
		CHANNELS 3  Xrotation Yrotation Zrotation
		JOINT right_knee
		{
			OFFSET	28.2	-396.7	2.2
			CHANNELS 3  Xrotation Yrotation Zrotation
			JOINT right_ankle
			{
				OFFSET	11.7	-411.3	35.4
				CHANNELS 3  Xrotation Yrotation Zrotation
				JOINT right_toes
				{
					OFFSET	0	-60	-88.6
					CHANNELS 3  Xrotation Yrotation Zrotation
					JOINT right_foot_ee
					{
						OFFSET	22.5	-16.5	-42.2
						CHANNELS 3  Xrotation Yrotation Zrotation
						End Site
						{
							OFFSET	1	0	0
						}
					}
				}
			}
		}
	}
}
MOTION
Frames: 16
Frame Time: 0.02
490.203 742.331 -590.651 -176.09 -78.9242 -174.022 0.0313767 0.245785 0.0908769 0.0313493 0.239504 0.106333 0.0317949 0.211892 0.154177 0.031838 0.233582 0.118778 -13.8412 5.38277 -0.295016 -13.9213 10.4446 1.4058 -0.0 0.0 -0.0 2.59269 18.3884 6.07723 3.60545 -31.1265 67.4526 0.819623 -22.0978 0.160048 21.5368 0.249583 -2.72365 -3.25144 25.7515 -8.03955 -0.0 0.0 -0.0 5.55607 14.4271 -10.0721 -11.6288 7.25437 -67.1836 1.743 40.8047 -0.648339 -15.4978 0.795978 -1.8087 -0.867152 -7.60975 2.45933 0.0 0.0 0.0 -2.66808 52.5001 -4.14974 3.58817 -0.164305 -0.525949 21.2843 -24.7987 -3.39657 -19.8512 0.0 0.0 -0.0 0.0 -0.0 3.74155 35.6703 -0.981257 -7.59148 -0.237318 -1.14005 39.4124 3.08208 4.85486 -24.9056 0.0 0.0 0.0 0.0 0.0 
490.807 743.287 -593.292 -178.27 -78.9609 -175.878 -0.0612605 0.155544 0.0818002 -0.0612693 0.150023 0.0915321 -0.0610263 0.127306 0.121154 -0.0610175 0.144842 0.0995282 -14.5141 5.60014 0.247604 -14.6043 10.5486 2.05273 -0.0 0.0 -0.0 2.47404 18.5742 5.90542 4.40751 -32.3623 67.7401 0.92883 -24.7075 0.203435 21.9528 0.244267 -2.77652 -3.06617 24.7999 -7.52814 -0.0 0.0 -0.0 5.91762 14.7574 -10.8222 -12.5445 7.08361 -67.5401 1.61272 38.6182 -0.565088 -15.3137 0.783698 -1.78859 -0.878484 -7.76633 2.46423 0.0 0.0 0.0 -2.25628 52.0074 -4.9238 2.90607 -0.130535 -0.42676 21.821 -25.5689 -3.50065 -19.8422 0.0 0.0 -0.0 0.0 -0.0 3.29337 35.703 -1.24521 -7.41383 -0.233499 -1.11305 39.0402 2.50175 4.81555 -25.8858 0.0 0.0 0.0 0.0 0.0 
492.755 745.526 -593.597 -179.134 -78.8979 -176.607 -0.0998125 0.0777551 0.0410274 -0.0998147 0.0749868 0.045892 -0.0997541 0.0635609 0.0607381 -0.0997518 0.0723556 0.0499376 -15.0337 5.79018 0.817779 -15.1291 10.5902 2.70319 -0.0 0.0 -0.0 2.41631 18.7931 5.82829 4.59331 -33.2309 67.4691 1.00783 -26.5301 0.237598 22.244 0.240317 -2.81351 -2.91467 24.1109 -7.04368 -0.0 0.0 -0.0 6.08019 14.9294 -11.1588 -13.5248 7.04715 -67.8031 1.52587 37.0821 -0.511793 -15.1733 0.774373 -1.77322 -0.866138 -7.7762 2.37982 0.0 0.0 0.0 -2.22002 51.6262 -5.3639 2.19827 -0.0967461 -0.323423 21.6652 -26.0558 -3.49782 -19.8447 0.0 0.0 -0.0 0.0 -0.0 2.94539 35.7263 -1.47112 -7.14392 -0.227537 -1.07206 38.5796 1.95323 4.76893 -26.6817 0.0 0.0 0.0 0.0 0.0 
493.411 748.384 -595.564 179.442 -79.0189 -178.05 -0.245435 -0.0317503 -0.0273138 -0.245435 -0.0299479 -0.0292788 -0.245419 -0.0229755 -0.0350179 -0.24542 -0.0282175 -0.0309499 -15.4682 5.92893 1.21802 -15.5675 10.6389 3.16881 -0.0 0.0 -0.0 2.37429 18.9142 5.77072 5.38665 -34.0621 67.9732 1.07771 -28.0955 0.269665 22.4414 0.237533 -2.83857 -2.80567 23.5939 -6.69849 -0.0 0.0 -0.0 6.10396 15.0899 -11.199 -14.4121 6.91454 -67.9552 1.44878 35.6643 -0.466072 -15.0616 0.766985 -1.76098 -0.858249 -7.79275 2.3214 0.0 0.0 0.0 -2.26738 51.3727 -5.64166 2.05605 -0.0901115 -0.302611 21.3991 -26.3826 -3.47314 -19.8872 0.0 0.0 -0.0 0.0 -0.0 2.69695 35.7632 -1.61394 -7.15968 -0.227891 -1.07445 38.217 1.58218 4.73279 -27.2653 0.0 0.0 0.0 0.0 0.0 
493.662 744.335 -598.145 178.33 -78.5862 -178.872 -0.212778 -0.118958 -0.245337 -0.21275 -0.103106 -0.25241 -0.212267 -0.0467581 -0.268617 -0.212357 -0.0885942 -0.257862 -15.5748 6.03609 1.35474 -15.677 10.7693 3.34477 -0.0 0.0 -0.0 2.42146 18.9874 5.8451 5.62471 -34.5564 67.9428 1.1161 -28.9365 0.28799 22.6077 0.235121 -2.85967 -2.69798 23.0786 -6.35292 -0.0 0.0 -0.0 6.29563 15.5051 -11.5826 -14.5794 6.87715 -67.9491 1.39666 34.6761 -0.436049 -14.9956 0.76263 -1.75374 -0.85296 -7.79224 2.28733 0.0 0.0 0.0 -2.32738 51.2193 -5.80539 1.31625 -0.0564353 -0.194093 21.4074 -26.5578 -3.48131 -19.8785 0.0 0.0 -0.0 0.0 -0.0 2.61522 35.7772 -2.00528 -7.58286 -0.237134 -1.13874 37.8791 1.3106 4.69973 -27.7625 0.0 0.0 0.0 0.0 0.0 
492.221 745.515 -602.624 176.352 -78.7633 179.34 -0.2309 -0.156718 -0.422319 -0.23081 -0.129527 -0.431435 -0.229758 -0.0341577 -0.449162 -0.230024 -0.104665 -0.438131 -15.8649 6.11505 1.73209 -15.9662 10.7164 3.75477 -0.0 0.0 -0.0 2.50219 18.9503 5.96482 5.95455 -34.9976 68.3464 1.15336 -29.74 0.306248 22.7013 0.233736 -2.87155 -2.63287 22.8165 -6.1145 -0.0 0.0 -0.0 5.92597 15.7452 -10.7716 -15.5223 6.54906 -67.5014 1.35456 33.8602 -0.412342 -14.8754 0.754721 -1.74054 -0.837669 -7.78831 2.18988 0.0 0.0 0.0 -2.62497 51.0843 -5.83862 1.34372 -0.0576605 -0.19813 21.3127 -26.8245 -3.47855 -19.8863 0.0 0.0 -0.0 0.0 -0.0 2.44695 35.8147 -1.73655 -7.62009 -0.237925 -1.1444 37.6868 1.13481 4.68066 -28.202 0.0 0.0 0.0 0.0 0.0 
496.383 744.674 -603.507 176.704 -78.9182 179.78 -0.27767 -0.182829 -0.598177 -0.277482 -0.144395 -0.608598 -0.275803 -0.0102502 -0.625409 -0.276332 -0.108891 -0.615941 -15.8625 5.69424 2.63922 -15.926 9.38471 4.45581 -0.0 0.0 -0.0 2.31465 18.9256 5.68156 6.77113 -36.2757 69.1378 1.24706 -31.7047 0.354126 23.1149 0.227384 -2.924 -2.3824 21.4926 -5.34051 -0.0 0.0 -0.0 6.07568 15.8085 -11.0888 -16.8145 5.8801 -66.9499 1.15097 29.689 -0.305066 -14.6564 0.740385 -1.71646 -0.717597 -6.9712 1.76537 0.0 0.0 0.0 -2.54686 51.1841 -5.83457 1.22934 -0.0525712 -0.181316 22.1001 -26.5068 -3.57716 -19.7952 0.0 0.0 -0.0 0.0 -0.0 2.31398 37.2815 -1.50276 -7.69229 -0.239447 -1.15537 36.8773 1.17519 4.60669 -29.7625 0.0 0.0 0.0 0.0 0.0 
499.708 745.703 -608.523 176.593 -78.6778 179.641 -0.440024 -0.173223 -0.678385 -0.439777 -0.129706 -0.688032 -0.43803 0.0231476 -0.699768 -0.438703 -0.0876555 -0.694642 -16.1426 5.93246 3.462 -16.194 9.3885 5.33442 -0.0 0.0 -0.0 2.49362 18.8813 5.94884 7.04195 -36.7178 69.2438 1.27993 -32.3748 0.371562 23.0847 0.22786 -2.92017 -2.28893 20.8123 -5.13589 -0.0 0.0 -0.0 6.00165 17.5497 -10.8019 -18.6361 5.12421 -67.4757 0.971915 25.7084 -0.221786 -14.7097 0.743866 -1.72233 -0.773889 -7.65335 1.83502 0.0 0.0 0.0 -3.1613 50.9315 -5.42133 0.981199 -0.041646 -0.144808 22.7924 -26.9415 -3.69234 -19.7016 0.0 0.0 -0.0 0.0 -0.0 2.8198 36.5307 -1.36649 -9.04755 -0.265457 -1.36171 36.6395 1.15862 4.58443 -29.2717 0.0 0.0 0.0 0.0 0.0 
502.529 746.181 -606.205 178.217 -79.7441 -178.85 -0.341957 -0.201109 -0.729145 -0.341675 -0.154306 -0.740464 -0.339465 0.0092461 -0.756314 -0.340246 -0.110312 -0.748283 -16.1712 6.11744 3.18694 -16.2382 9.90355 5.14588 -0.0 0.0 -0.0 2.44953 18.8527 5.88113 7.08312 -36.2905 69.1384 1.27967 -32.3696 0.371425 23.0262 0.228778 -2.91276 -2.3489 21.1994 -5.29321 -0.0 0.0 -0.0 5.82783 15.7434 -10.5611 -19.2887 4.73109 -67.6826 1.06522 27.819 -0.26381 -14.6459 0.7397 -1.71531 -0.771148 -7.73559 1.78148 0.0 0.0 0.0 -2.59081 50.9051 -5.72419 0.886979 -0.0375394 -0.130933 21.9037 -26.8132 -3.56208 -19.6918 0.0 0.0 -0.0 0.0 -0.0 2.80434 36.7501 -1.30817 -8.92996 -0.263394 -1.34378 36.1975 1.1404 4.54285 -29.5807 0.0 0.0 0.0 0.0 0.0 
505.486 745.022 -612.06 178.8 -80.0366 -178.254 -0.34526 -0.241844 -0.821702 -0.344904 -0.189069 -0.835425 -0.341866 -0.00415619 -0.856541 -0.342863 -0.139374 -0.845137 -14.9578 6.13124 3.86392 -14.9903 9.43067 5.67547 -0.0 0.0 -0.0 2.61393 18.5274 6.11538 7.3772 -36.6655 70.2138 1.33642 -33.5039 0.402284 23.331 0.223915 -2.95138 -2.11595 19.508 -4.75997 -0.0 0.0 -0.0 6.09721 15.7815 -11.137 -19.891 4.06711 -66.6411 0.811463 21.8988 -0.156991 -15.0789 0.768128 -1.76288 -0.819528 -8.06417 1.95187 0.0 0.0 0.0 -3.10834 50.9004 -4.92262 0.661359 -0.0277979 -0.097682 23.6473 -26.4889 -3.79102 -19.6769 0.0 0.0 -0.0 0.0 -0.0 2.98473 36.9383 -1.48701 -9.95415 -0.280128 -1.50005 37.6762 -0.701744 4.66547 -29.8607 0.0 0.0 0.0 0.0 0.0 
508.147 746.381 -615.296 177.582 -80.6051 -179.429 -0.373444 -0.268224 -0.855545 -0.373062 -0.213242 -0.870877 -0.369507 -0.0196712 -0.896386 -0.370592 -0.160986 -0.882032 -14.9166 5.81097 3.68517 -14.9447 8.92018 5.39707 -0.0 0.0 -0.0 2.75703 18.2923 6.32347 7.4182 -36.8646 70.7714 1.36757 -34.114 0.419614 23.7346 0.217159 -3.0025 -2.04509 18.9695 -4.60063 -0.0 0.0 -0.0 6.32576 16.1437 -11.6037 -20.7586 3.49626 -65.8264 0.683029 18.6934 -0.112424 -15.2321 0.778272 -1.77966 -0.742646 -7.62588 1.64424 0.0 0.0 0.0 -3.63576 50.9038 -4.6805 1.01644 -0.0431878 -0.149995 23.9095 -26.4874 -3.82676 -19.6453 0.0 0.0 -0.0 0.0 -0.0 2.81779 37.1252 -1.16819 -10.462 -0.287389 -1.57763 36.0156 0.319926 4.51872 -30.0175 0.0 0.0 0.0 0.0 0.0 
505.938 747.097 -616.876 178.969 -79.7248 -178.314 -0.474999 -0.215936 -0.810579 -0.474649 -0.163921 -0.822676 -0.472017 0.0195524 -0.838619 -0.472981 -0.113133 -0.831183 -14.3977 5.66784 3.94577 -14.4092 8.44255 5.55438 -0.0 0.0 -0.0 2.67911 17.9708 6.19158 7.43374 -37.0425 70.7157 1.38751 -34.5001 0.430853 24.0798 0.211095 -3.04617 -1.85351 17.7222 -4.04882 -0.0 0.0 -0.0 6.48513 16.4096 -11.929 -20.5644 3.62759 -65.1223 0.636182 17.4921 -0.0978741 -15.6706 0.807563 -1.82754 -0.72263 -7.61747 1.51802 0.0 0.0 0.0 -3.60845 50.8802 -4.10293 0.878898 -0.0371884 -0.129743 24.2207 -26.5487 -3.87175 -19.9487 0.0 0.0 -0.0 0.0 -0.0 4.73302 36.9996 -1.26404 -11.8163 -0.303385 -1.78481 35.656 0.477394 4.48586 -30.6136 0.0 0.0 0.0 0.0 0.0 
505.895 740.767 -619.244 -179.197 -78.9795 -176.961 -0.430439 -0.194918 -0.753933 -0.430135 -0.14655 -0.764807 -0.427945 0.0232792 -0.778372 -0.428776 -0.0999386 -0.772281 -11.7348 5.38965 3.77754 -11.7258 7.76381 5.12442 -0.0 0.0 -0.0 2.75965 18.1099 6.32042 7.15252 -36.4909 70.5411 1.43151 -35.3395 0.456042 24.3585 0.206007 -3.08141 -1.2961 12.775 -2.90465 -0.0 0.0 -0.0 6.23271 16.2856 -11.3932 -20.2627 3.36629 -64.8164 0.636435 17.4987 -0.0979502 -15.3915 0.78888 -1.79709 -0.524051 -7.68962 0.19913 0.0 0.0 0.0 -4.64833 50.8499 -2.33964 0.923893 -0.0391457 -0.13637 24.5028 -27.2173 -3.94013 -20.2756 0.0 0.0 -0.0 0.0 -0.0 6.66727 37.3681 -1.5783 -14.9539 -0.321605 -2.26582 35.6093 -0.128966 4.47673 -33.0896 0.0 0.0 0.0 0.0 0.0 
505.789 740.251 -620.511 -178.84 -78.1884 -176.62 -0.339014 -0.164682 -0.880994 -0.338589 -0.10829 -0.889686 -0.336627 0.0863648 -0.892081 -0.337733 -0.055601 -0.894526 -12.8234 5.41816 2.50948 -12.853 8.72098 3.99638 -0.0 0.0 -0.0 2.83351 18.1976 6.43658 6.32248 -35.852 70.7694 1.49064 -36.4406 0.490708 25.616 0.180922 -3.24008 -1.34507 14.4972 -2.42939 -0.0 0.0 -0.0 6.68051 17.545 -12.2709 -20.8456 3.52183 -64.1887 0.514172 14.2899 -0.0644537 -16.1936 0.842972 -1.88436 -0.413131 -5.65887 0.341029 0.0 0.0 0.0 -4.64655 49.7269 -2.08287 0.522216 -0.0218556 -0.0771569 24.0175 -24.3579 -3.75322 -20.5957 0.0 0.0 -0.0 0.0 -0.0 6.89564 36.8475 -1.42196 -13.956 -0.318667 -2.11274 37.1885 -0.760669 4.62044 -30.6644 0.0 0.0 0.0 0.0 0.0 
508.927 739.722 -619.087 -176.96 -77.489 -175.116 -0.22691 -0.080709 -0.888767 -0.226471 -0.0239932 -0.892101 -0.225865 0.16751 -0.876563 -0.226936 0.0269768 -0.892016 -12.2922 5.16128 3.73644 -12.2843 7.40965 5.05562 -0.0 0.0 -0.0 2.71295 17.8149 6.23711 5.68791 -36.8375 70.3662 1.37856 -34.3272 0.425793 25.115 0.191332 -3.17694 -1.49259 15.4321 -2.91565 -0.0 0.0 -0.0 6.83649 17.6697 -12.6002 -21.1717 3.30153 -63.6788 0.467636 13.0429 -0.053458 -16.2378 0.845989 -1.88915 -0.676509 -7.62345 1.21623 0.0 0.0 0.0 -4.95741 50.5801 -1.51375 0.961363 -0.0407799 -0.141887 23.7954 -25.2209 -3.75798 -20.9332 0.0 0.0 -0.0 0.0 -0.0 7.21802 36.3415 -1.32531 -14.607 -0.320886 -2.21259 36.1201 0.292216 4.52837 -31.4602 0.0 0.0 0.0 0.0 0.0 
509.572 740.648 -615.064 -176.397 -77.3995 -174.859 -0.212485 -0.0905416 -0.797538 -0.212132 -0.0396104 -0.801683 -0.211384 0.132698 -0.791617 -0.212258 0.00601548 -0.802638 -12.0851 5.51126 4.85183 -12.0486 7.33744 6.20924 -0.0 0.0 -0.0 2.2319 17.9465 5.50581 5.35217 -36.8046 70.5126 1.44348 -35.5648 0.462982 24.8931 0.195767 -3.14894 -1.35913 13.803 -2.83306 -0.0 0.0 -0.0 6.82714 17.3178 -12.6052 -21.0666 3.17977 -63.8902 0.485605 13.526 -0.0575872 -16.5365 0.866475 -1.92144 -0.652536 -7.63606 1.05529 0.0 0.0 0.0 -5.36033 50.8321 -0.814407 1.11016 -0.0473046 -0.163788 23.4943 -24.9682 -3.70714 -20.8425 0.0 0.0 -0.0 0.0 -0.0 7.88074 34.1461 -1.8972 -14.7965 -0.321319 -2.24166 35.9177 -3.59718 4.48904 -33.3825 0.0 0.0 0.0 0.0 0.0 
